HIERARCHY
ROOT Hips
{
	OFFSET -0.001795 -0.223333 0.028219
	CHANNELS 6 Xposition Yposition Zposition Zrotation Yrotation Xrotation 
	JOINT LeftUpLeg
	{
		OFFSET 0.069520 -0.091406 -0.006815
		CHANNELS 3 Zrotation Yrotation Xrotation
		JOINT LeftLeg
		{
			OFFSET 0.034277 -0.375199 -0.004496
			CHANNELS 3 Zrotation Yrotation Xrotation
			JOINT LeftFoot
			{
				OFFSET -0.013596 -0.397961 -0.043693
				CHANNELS 3 Zrotation Yrotation Xrotation
				JOINT LeftToe
				{
					OFFSET 0.026358 -0.055791 0.119288
					CHANNELS 3 Zrotation Yrotation Xrotation
					End Site
					{
						OFFSET 0.000000 0.000000 0.000000
					}
				}
			}
		}
	}
	JOINT RightUpLeg
	{
		OFFSET -0.067670 -0.090522 -0.004320
		CHANNELS 3 Zrotation Yrotation Xrotation
		JOINT RightLeg
		{
			OFFSET -0.038290 -0.382569 -0.008850
			CHANNELS 3 Zrotation Yrotation Xrotation
			JOINT RightFoot
			{
				OFFSET 0.015774 -0.398415 -0.042312
				CHANNELS 3 Zrotation Yrotation Xrotation
				JOINT RightToe
				{
					OFFSET -0.025372 -0.048144 0.123348
					CHANNELS 3 Zrotation Yrotation Xrotation
					End Site
					{
						OFFSET 0.000000 0.000000 0.000000
					}
				}
			}
		}
	}
	JOINT Spine
	{
		OFFSET -0.002533 0.108963 -0.026696
		CHANNELS 3 Zrotation Yrotation Xrotation
		JOINT Spine1
		{
			OFFSET 0.005487 0.135180 0.001092
			CHANNELS 3 Zrotation Yrotation Xrotation
			JOINT Spine2
			{
				OFFSET 0.001457 0.052922 0.025425
				CHANNELS 3 Zrotation Yrotation Xrotation
				JOINT Neck
				{
					OFFSET -0.002778 0.213870 -0.042857
					CHANNELS 3 Zrotation Yrotation Xrotation
					JOINT Head
					{
						OFFSET 0.005152 0.064970 0.051349
						CHANNELS 3 Zrotation Yrotation Xrotation
						End Site
						{
							OFFSET 0.000000 0.000000 0.000000
						}
					}
				}
				JOINT LeftShoulder
				{
					OFFSET 0.078845 0.121749 -0.034090
					CHANNELS 3 Zrotation Yrotation Xrotation
					JOINT LeftArm
					{
						OFFSET 0.090977 0.030469 -0.008868
						CHANNELS 3 Zrotation Yrotation Xrotation
						JOINT LeftForeArm
						{
							OFFSET 0.259612 -0.012772 -0.027456
							CHANNELS 3 Zrotation Yrotation Xrotation
							JOINT LeftHand
							{
								OFFSET 0.249234 0.008986 -0.001171
								CHANNELS 3 Zrotation Yrotation Xrotation
								End Site
								{
									OFFSET 0.000000 0.000000 0.000000
								}
							}
						}
					}
				}
				JOINT RightShoulder
				{
					OFFSET -0.081759 0.118833 -0.038615
					CHANNELS 3 Zrotation Yrotation Xrotation
					JOINT RightArm
					{
						OFFSET -0.096012 0.032551 -0.009143
						CHANNELS 3 Zrotation Yrotation Xrotation
						JOINT RightForeArm
						{
							OFFSET -0.253742 -0.013329 -0.021401
							CHANNELS 3 Zrotation Yrotation Xrotation
							JOINT RightHand
							{
								OFFSET -0.255298 0.007772 -0.005559
								CHANNELS 3 Zrotation Yrotation Xrotation
								End Site
								{
									OFFSET 0.000000 0.000000 0.000000
								}
							}
						}
					}
				}
			}
		}
	}
}
MOTION
Frames: 12
Frame Time: 0.050000
0.000000 0.946209 0.000000 -1.241222 3.381392 2.324464 -2.622107 0.230415 1.525746 1.298904 0.038577 -3.808038 0.132953 3.000158 5.928658 0.000000 0.000000 0.000000 1.574162 0.138869 -1.503689 -1.171414 0.172203 0.857452 0.686350 -0.409419 4.649948 0.000000 0.000000 0.000000 1.998297 0.134672 -2.977493 -0.436209 0.332476 -3.872279 -1.401864 -0.864418 7.849386 3.840329 -1.186306 -15.432278 0.000000 0.000000 0.000000 -14.810869 -2.293166 -0.436442 -59.486889 -3.646228 -5.657411 -11.180588 -25.235739 3.455998 0.000000 0.000000 0.000000 13.316718 -0.334152 -1.079573 65.138794 5.903148 -3.336781 8.254546 24.110489 2.548283 0.000000 0.000000 0.000000
0.000195 0.945335 0.000352 -1.225193 3.339995 2.643631 -2.342593 0.266514 1.933968 0.909748 0.105626 -4.812593 0.438111 3.225844 5.109033 0.000000 0.000000 0.000000 1.093207 0.123460 -1.326988 -0.572690 0.073908 0.233055 1.087497 0.661251 4.323341 0.000000 0.000000 0.000000 2.257164 0.169760 -3.595991 -0.697024 0.415854 -2.857890 -1.545040 -0.852946 7.217873 3.512988 -0.854258 -16.466343 0.000000 0.000000 0.000000 -15.021214 -1.139485 -1.882318 -59.325764 -3.385551 -5.698174 -11.835886 -25.831970 3.681964 0.000000 0.000000 0.000000 12.857159 -1.083092 -1.419766 66.125679 5.522141 -3.505117 8.598855 24.234446 2.623092 0.000000 0.000000 0.000000
0.000491 0.944849 0.000413 -0.812363 3.107598 2.500865 -2.699238 0.269775 1.848464 0.652156 0.085314 -3.862350 0.202957 2.442354 4.333753 0.000000 0.000000 0.000000 0.703951 0.114808 -1.204733 -0.668161 0.097580 0.529065 0.618050 -0.037075 3.392845 0.000000 0.000000 0.000000 2.120845 0.150786 -3.262944 -0.926808 0.550373 -4.190817 -1.372090 -1.386508 8.140236 2.107753 -0.123746 -16.058617 0.000000 0.000000 0.000000 -14.742981 -0.537138 -1.789671 -58.896908 -2.940884 -5.963815 -12.973328 -25.872545 4.010864 0.000000 0.000000 0.000000 13.892355 -0.005897 -1.087554 64.498283 5.377116 -3.681964 8.401229 24.911467 2.639155 0.000000 0.000000 0.000000
0.000777 0.944453 0.000560 -0.907258 3.180093 2.371166 -2.955255 0.296142 2.001575 1.007398 0.064391 -3.949825 0.015529 2.031632 4.205859 0.000000 0.000000 0.000000 0.672237 0.113189 -1.182393 -0.449271 0.079463 0.698707 0.733400 0.289145 3.286588 0.000000 0.000000 0.000000 1.988615 0.161012 -3.459243 -1.061276 0.589886 -3.369061 -0.807622 -1.800967 7.535077 1.745092 0.027306 -15.742309 0.000000 0.000000 0.000000 -14.049114 0.246179 -1.342390 -60.053600 -2.738508 -6.118523 -12.799406 -26.483732 4.096934 0.000000 0.000000 0.000000 12.689626 0.398179 -0.889850 64.620621 5.505350 -3.574881 9.138729 24.505610 2.698620 0.000000 0.000000 0.000000
0.001105 0.944316 0.000731 -0.758609 3.084000 2.074853 -3.255961 0.319764 2.128140 1.122976 0.049437 -3.789197 -0.056703 2.012941 4.489454 0.000000 0.000000 0.000000 0.529619 0.058581 -0.651870 -0.570908 0.082223 0.431480 0.560646 -0.015096 3.035256 0.000000 0.000000 0.000000 1.952067 0.128768 -2.840692 -0.999339 0.566154 -3.522363 -0.843723 -1.656407 7.512304 1.391145 0.237530 -15.504163 0.000000 0.000000 0.000000 -13.927645 0.199641 -0.762999 -59.979958 -2.800062 -6.082001 -13.500463 -26.124611 4.193961 0.000000 0.000000 0.000000 12.689025 0.761709 -0.702031 64.258293 5.739637 -3.422759 9.055792 24.150614 2.640256 0.000000 0.000000 0.000000
0.001495 0.944200 0.001132 -0.848245 3.105039 1.966498 -3.550373 0.347107 2.269647 1.671641 0.016274 -3.906155 -0.160660 1.638497 4.090616 0.000000 0.000000 0.000000 0.539297 0.035507 -0.436350 -0.485807 0.063622 0.223360 0.449595 -0.240762 2.947259 0.000000 0.000000 0.000000 2.071229 0.119083 -2.638236 -0.881717 0.512356 -3.409019 -0.685725 -1.808116 7.494946 1.215386 0.316883 -15.370952 0.000000 0.000000 0.000000 -14.218071 0.394790 -0.660448 -59.812180 -2.624837 -6.147838 -13.693201 -26.594275 4.333742 0.000000 0.000000 0.000000 12.333617 1.216051 -0.489264 64.044746 6.063180 -3.242713 9.103977 23.530823 2.559713 0.000000 0.000000 0.000000
0.001891 0.943972 0.001669 -0.822569 2.990618 1.938496 -3.887249 0.375775 2.399188 1.950680 0.008481 -4.147972 -0.141076 1.805289 4.392712 0.000000 0.000000 0.000000 0.520453 0.007443 -0.172079 -0.554960 0.058337 -0.076455 0.350223 -0.467780 2.909559 0.000000 0.000000 0.000000 2.131865 0.110557 -2.473820 -0.911771 0.527814 -3.539161 -0.781743 -1.898199 7.568056 1.395513 0.220141 -15.744081 0.000000 0.000000 0.000000 -14.387506 0.552762 -2.059971 -59.754669 -2.489941 -6.212459 -13.798147 -26.473192 4.348672 0.000000 0.000000 0.000000 12.066611 1.277531 -0.459957 63.979271 6.010119 -3.283645 9.268567 23.201002 2.543432 0.000000 0.000000 0.000000
0.002261 0.943785 0.002213 -0.783914 3.202926 2.068386 -4.130228 0.399393 2.493310 2.344425 -0.000215 -4.476696 -0.194491 1.703780 4.369588 0.000000 0.000000 0.000000 0.419557 0.018084 -0.250104 -0.517195 0.056838 -0.018541 0.205457 -0.649313 2.551036 0.000000 0.000000 0.000000 2.122377 0.113997 -2.558942 -0.773927 0.469735 -3.560190 -0.870825 -2.097043 7.610818 1.764101 0.007784 -16.024790 0.000000 0.000000 0.000000 -14.859830 0.361421 -2.276165 -59.456127 -2.212682 -6.321430 -13.917227 -26.495882 4.385645 0.000000 0.000000 0.000000 11.897264 1.222841 -0.481392 64.059441 6.025666 -3.285174 9.282805 22.738907 2.485869 0.000000 0.000000 0.000000
0.002605 0.943636 0.002713 -0.809388 3.293893 2.251609 -4.291579 0.411781 2.518542 2.518067 0.007940 -4.828513 -0.217138 1.722151 4.496740 0.000000 0.000000 0.000000 0.327392 0.042589 -0.464152 -0.427401 0.046459 -0.028267 0.079556 -0.929614 2.504765 0.000000 0.000000 0.000000 2.175659 0.119132 -2.669298 -0.626563 0.402938 -3.478765 -0.964628 -2.333008 7.352558 1.808677 -0.020021 -16.178659 0.000000 0.000000 0.000000 -15.073781 0.226792 -1.895836 -59.483440 -2.085461 -6.355907 -13.560662 -26.189400 4.251485 0.000000 0.000000 0.000000 11.751714 1.274220 -0.477346 63.890125 5.812835 -3.374806 9.463127 22.721685 2.505620 0.000000 0.000000 0.000000
0.002905 0.943578 0.003050 -0.867814 3.297291 2.391937 -4.586383 0.431700 2.562126 2.783030 0.010480 -5.163994 -0.303417 1.661715 4.728439 0.000000 0.000000 0.000000 0.294942 0.060002 -0.624260 -0.437260 0.050538 0.042985 -0.054298 -1.162386 2.291015 0.000000 0.000000 0.000000 2.274811 0.127023 -2.815760 -0.681034 0.425779 -3.443726 -0.949874 -2.485134 7.341392 1.888040 -0.045478 -16.650545 0.000000 0.000000 0.000000 -15.173801 0.137422 -1.492437 -59.592350 -2.023471 -6.394988 -13.294199 -25.906202 4.151458 0.000000 0.000000 0.000000 11.534152 1.438933 -0.408018 63.898216 5.710361 -3.439413 9.587419 22.466206 2.487724 0.000000 0.000000 0.000000
0.003174 0.943470 0.003270 -0.912147 3.281312 2.529138 -4.661658 0.439262 2.582626 2.834328 0.018538 -5.359686 -0.376939 1.505262 4.694017 0.000000 0.000000 0.000000 0.321607 0.069726 -0.721909 -0.421748 0.041048 -0.139846 -0.046613 -1.181476 2.379335 0.000000 0.000000 0.000000 2.336357 0.132432 -2.918572 -0.628023 0.405466 -3.566609 -0.976537 -2.547186 7.523458 1.731405 0.066077 -16.957079 0.000000 0.000000 0.000000 -15.354144 -0.106149 -1.208640 -59.619301 -2.254460 -6.295820 -12.990890 -25.580652 4.031304 0.000000 0.000000 0.000000 11.543959 1.476813 -0.397483 63.930733 5.770108 -3.427085 9.532952 22.356611 2.463900 0.000000 0.000000 0.000000
0.003447 0.943443 0.003431 -0.940409 3.430389 2.794049 -4.693487 0.429372 2.465273 2.793616 0.028804 -5.489014 -0.469101 1.402960 4.836857 0.000000 0.000000 0.000000 0.395518 0.104857 -1.065606 -0.487101 0.047166 -0.166898 -0.094844 -1.246665 2.270226 0.000000 0.000000 0.000000 2.366710 0.149808 -3.255800 -0.538006 0.366109 -3.535417 -1.026099 -2.770422 7.596765 1.920665 -0.059623 -17.012209 0.000000 0.000000 0.000000 -15.360499 -0.288224 -2.274244 -59.750465 -2.263548 -6.308556 -12.780720 -25.361732 3.956139 0.000000 0.000000 0.000000 11.684420 1.682133 -0.334432 63.794579 5.773171 -3.430266 9.267622 22.152927 2.385250 0.000000 0.000000 0.000000
